<?xml version="1.0" standalone="no"?>
<!DOCTYPE svg PUBLIC "-//W3C//DTD SVG 20010904//EN"
 "http://www.w3.org/TR/2001/REC-SVG-20010904/DTD/svg10.dtd">
<svg version="1.0" xmlns="http://www.w3.org/2000/svg"
 width="500.000000pt" height="500.000000pt" viewBox="0 0 500.000000 500.000000"
 preserveAspectRatio="xMidYMid meet">

<g transform="translate(0.000000,500.000000) scale(0.100000,-0.100000)"
fill="#000000" stroke="none">
<path d="M0 4546 c0 -354 3 -455 13 -459 9 -4 9 -6 0 -6 -10 -1 -13 -420 -13
-2041 l0 -2040 1439 0 c1128 0 1441 3 1444 13 4 9 6 9 6 0 1 -16 137 -18 146
-3 3 5 12 10 18 10 7 0 6 -4 -3 -10 -11 -7 -6 -10 21 -10 25 0 39 5 43 16 8
22 8 22 -16 26 -29 4 -32 20 -7 36 18 12 23 12 30 0 5 -7 7 -19 4 -26 -2 -6 3
-12 13 -12 14 0 15 -2 2 -10 -23 -14 -8 -19 38 -13 33 4 42 10 39 22 -2 9 -9
15 -15 14 -25 -6 -11 27 18 42 17 9 30 22 30 30 0 18 31 35 67 36 15 0 22 3
16 6 -23 9 4 42 28 36 11 -3 17 -9 12 -12 -16 -12 -13 -31 5 -31 14 0 15 -2 2
-10 -8 -5 -25 -7 -37 -3 -18 4 -23 1 -23 -13 0 -9 -7 -26 -17 -36 -14 -16 -15
-18 0 -18 9 0 19 5 22 11 5 7 12 6 23 -4 13 -11 35 -14 95 -10 42 3 77 10 77
15 0 5 5 6 10 3 6 -3 10 -1 10 4 0 6 -9 11 -20 11 -11 0 -20 5 -20 10 0 6 -8
10 -17 11 -15 0 -15 2 2 9 18 8 17 9 -8 9 -27 1 -27 2 -11 18 10 10 12 19 6
21 -6 2 -8 11 -5 20 5 14 3 13 -9 -2 -8 -10 -20 -16 -26 -12 -14 8 -11 48 3
42 6 -2 30 -1 53 4 34 6 46 4 64 -11 25 -22 32 -23 57 -7 15 9 25 6 55 -17 24
-18 36 -36 36 -51 0 -19 5 -24 28 -24 18 0 23 -3 14 -9 -11 -6 -9 -9 7 -14 28
-7 34 3 14 25 -15 17 -15 18 10 18 15 0 27 5 27 10 0 6 7 10 15 10 8 0 15 -6
15 -14 0 -9 8 -12 24 -9 18 4 24 1 22 -11 -1 -8 -5 -19 -9 -22 -12 -12 -8 -24
7 -18 7 3 16 -2 19 -10 4 -9 13 -16 22 -16 8 0 15 -4 15 -9 0 -12 27 -21 45
-15 8 3 17 14 20 24 4 12 12 17 21 13 8 -3 13 -12 10 -19 -3 -7 -1 -16 4 -19
6 -4 10 -15 10 -26 0 -10 5 -19 11 -19 7 0 9 10 7 25 -5 26 6 34 19 13 4 -7
17 -18 28 -24 17 -10 22 -7 37 17 20 32 39 37 61 14 8 -8 17 -11 21 -8 6 6 10
-12 7 -29 0 -5 64 -8 143 -8 106 0 146 3 149 13 4 10 6 10 6 0 1 -10 55 -13
236 -13 l235 0 0 2500 0 2500 -2500 0 -2500 0 0 -454z m1977 -232 c-3 -3 -12
-4 -19 -1 -8 3 -5 6 6 6 11 1 17 -2 13 -5z m-122 -38 c-194 -71 -286 -117
-437 -218 -421 -281 -699 -692 -810 -1199 -20 -93 -23 -131 -23 -354 0 -202 3
-267 18 -340 80 -397 273 -749 563 -1025 268 -256 657 -444 1039 -504 53 -8
75 -14 53 -15 -45 -1 -239 32 -337 58 -40 11 -80 17 -89 13 -8 -3 -13 -1 -9 4
3 5 -31 22 -76 38 -111 40 -330 153 -430 222 -87 61 -252 200 -302 256 -288
318 -451 668 -504 1083 -13 101 -6 384 13 493 9 51 27 135 41 188 29 113 30
118 10 110 -8 -3 -15 -3 -15 0 0 2 10 8 23 13 13 5 28 24 36 47 22 65 128 271
177 347 73 112 130 184 239 296 215 222 474 386 760 480 145 48 185 53 60 7z
m42 -214 c65 -34 108 -77 132 -132 21 -48 21 -59 19 -467 l-3 -418 -89 -3
c-65 -2 -92 1 -98 10 -4 7 -8 64 -8 126 l0 112 -75 0 c-53 0 -75 -4 -76 -12
-1 -7 -1 -50 1 -95 1 -45 -1 -95 -5 -112 l-7 -31 -93 0 c-75 0 -94 3 -99 16
-11 29 -7 770 5 824 18 83 94 165 184 198 47 18 163 9 212 -16z m702 9 c67
-25 115 -64 148 -119 l28 -47 0 -430 0 -430 -70 -3 c-38 -2 -74 -7 -79 -12 -5
-5 -16 -30 -26 -57 -9 -26 -33 -91 -53 -144 -20 -53 -37 -102 -37 -108 0 -11
-34 -10 -45 1 -6 5 84 243 106 281 14 26 12 829 -2 861 -17 37 -65 54 -98 35
-50 -28 -51 -35 -51 -462 l0 -398 -97 3 -98 3 0 425 c0 416 0 426 22 465 69
128 219 187 352 136z m742 -10 c63 -19 115 -65 145 -128 l29 -58 0 -315 c0
-361 -3 -378 -80 -449 -66 -60 -119 -72 -311 -69 l-159 3 -3 509 c-2 383 1
512 10 517 18 11 328 3 369 -10z m-2911 -906 c7 -9 8 -15 2 -15 -5 0 -12 7
-16 15 -3 8 -4 15 -2 15 2 0 9 -7 16 -15z m98 -43 c2 -7 -5 -12 -15 -11 -12 0
-14 2 -4 6 11 5 11 7 0 15 -12 8 -12 9 0 6 8 -3 17 -10 19 -16z m-310 -59 c-4
-22 -22 -20 -26 1 -2 10 3 16 13 16 10 0 15 -7 13 -17z m1928 -64 c8 -14 -27
-47 -182 -170 -102 -80 -120 -98 -101 -101 12 -2 -4 -4 -35 -5 -32 -1 -58 2
-58 6 0 4 21 23 48 43 240 186 308 237 314 237 4 1 10 -4 14 -10z m694 -54
c47 -36 128 -98 180 -138 52 -39 101 -75 110 -78 8 -3 -11 -6 -42 -7 -32 0
-56 3 -55 8 1 4 -23 27 -53 51 -222 174 -255 203 -246 218 4 6 10 11 14 11 4
0 45 -29 92 -65z m-2480 -154 c0 -4 -11 -6 -25 -3 -14 2 -25 6 -25 8 0 2 11 4
25 4 14 0 25 -4 25 -9z m-20 -25 c0 -3 -4 -8 -10 -11 -5 -3 -10 -1 -10 4 0 6
5 11 10 11 6 0 10 -2 10 -4z m3249 -49 c0 -8 -2 -8 -5 -1 -2 6 -19 9 -37 8
l-32 -3 30 8 c34 8 45 5 44 -12z m-2066 6 c-7 -2 -19 -2 -25 0 -7 3 -2 5 12 5
14 0 19 -2 13 -5z m80 0 c-7 -2 -21 -2 -30 0 -10 3 -4 5 12 5 17 0 24 -2 18
-5z m70 0 c-7 -2 -21 -2 -30 0 -10 3 -4 5 12 5 17 0 24 -2 18 -5z m60 0 c-7
-2 -19 -2 -25 0 -7 3 -2 5 12 5 14 0 19 -2 13 -5z m220 0 c-7 -2 -21 -2 -30 0
-10 3 -4 5 12 5 17 0 24 -2 18 -5z m70 0 c-7 -2 -19 -2 -25 0 -7 3 -2 5 12 5
14 0 19 -2 13 -5z m60 0 c-7 -2 -19 -2 -25 0 -7 3 -2 5 12 5 14 0 19 -2 13 -5z
m80 0 c-7 -2 -21 -2 -30 0 -10 3 -4 5 12 5 17 0 24 -2 18 -5z m70 0 c-7 -2
-21 -2 -30 0 -10 3 -4 5 12 5 17 0 24 -2 18 -5z m60 0 c-7 -2 -19 -2 -25 0 -7
3 -2 5 12 5 14 0 19 -2 13 -5z m80 0 c-7 -2 -21 -2 -30 0 -10 3 -4 5 12 5 17
0 24 -2 18 -5z m74 1 c-3 -3 -12 -4 -19 -1 -8 3 -5 6 6 6 11 1 17 -2 13 -5z
m136 -1 c-7 -2 -21 -2 -30 0 -10 3 -4 5 12 5 17 0 24 -2 18 -5z m60 0 c-7 -2
-19 -2 -25 0 -7 3 -2 5 12 5 14 0 19 -2 13 -5z m80 0 c-7 -2 -21 -2 -30 0 -10
3 -4 5 12 5 17 0 24 -2 18 -5z m70 0 c-7 -2 -21 -2 -30 0 -10 3 -4 5 12 5 17
0 24 -2 18 -5z m70 0 c-7 -2 -21 -2 -30 0 -10 3 -4 5 12 5 17 0 24 -2 18 -5z
m70 0 c-7 -2 -19 -2 -25 0 -7 3 -2 5 12 5 14 0 19 -2 13 -5z m60 0 c-7 -2 -19
-2 -25 0 -7 3 -2 5 12 5 14 0 19 -2 13 -5z m210 0 c-7 -2 -19 -2 -25 0 -7 3
-2 5 12 5 14 0 19 -2 13 -5z m80 0 c-7 -2 -21 -2 -30 0 -10 3 -4 5 12 5 17 0
24 -2 18 -5z m70 0 c-7 -2 -21 -2 -30 0 -10 3 -4 5 12 5 17 0 24 -2 18 -5z
m60 0 c-7 -2 -19 -2 -25 0 -7 3 -2 5 12 5 14 0 19 -2 13 -5z m80 0 c-7 -2 -21
-2 -30 0 -10 3 -4 5 12 5 17 0 24 -2 18 -5z m-2173 -214 c0 -37 4 -58 10 -54
6 3 10 31 10 61 0 77 24 68 28 -10 4 -72 22 -64 22 10 0 31 4 54 10 54 7 0 10
-25 8 -67 l-3 -68 -50 -2 c-30 -2 -52 2 -57 10 -4 6 -8 38 -8 70 0 44 3 57 15
57 12 0 15 -13 15 -61z m275 50 c4 -6 -2 -13 -14 -16 -24 -6 -29 -33 -6 -33 8
0 15 -4 15 -10 0 -5 -7 -10 -15 -10 -8 0 -15 -9 -15 -20 0 -13 7 -20 20 -20
11 0 20 -4 20 -10 0 -5 -16 -10 -35 -10 l-35 0 0 70 0 70 29 0 c17 0 33 -5 36
-11z m173 -1 c5 -7 10 -33 10 -58 0 -53 -11 -70 -44 -70 -23 0 -24 3 -24 70 0
67 1 70 24 70 13 0 28 -6 34 -12z m340 0 c7 -7 12 -33 12 -58 0 -51 -13 -70
-47 -70 -22 0 -23 4 -23 70 0 66 1 70 23 70 13 0 28 -5 35 -12z m192 -3 c0 -8
-9 -15 -20 -15 -11 0 -20 -7 -20 -15 0 -8 9 -15 20 -15 11 0 20 -4 20 -9 0 -5
-9 -11 -20 -14 -11 -3 -20 -10 -20 -17 0 -7 9 -14 20 -17 30 -8 24 -23 -10
-23 l-30 0 0 70 0 70 30 0 c20 0 30 -5 30 -15z m138 -18 c4 -30 22 -27 22 3 0
19 17 36 26 27 3 -3 1 -22 -4 -43 -6 -22 -13 -51 -16 -66 -13 -55 -29 -30 -51
81 -6 26 -4 32 6 29 8 -3 15 -17 17 -31z m227 22 c4 -6 -2 -13 -14 -16 -24 -6
-29 -33 -6 -33 8 0 15 -4 15 -10 0 -5 -7 -10 -15 -10 -8 0 -15 -9 -15 -20 0
-13 7 -20 20 -20 11 0 20 -4 20 -10 0 -5 -16 -10 -35 -10 l-35 0 0 70 0 70 29
0 c17 0 33 -5 36 -11z m143 -52 c2 -42 7 -57 17 -57 8 0 15 -4 15 -10 0 -5
-13 -10 -30 -10 l-30 0 0 71 c0 52 3 70 13 67 7 -3 13 -27 15 -61z m210 51
c13 -13 16 -85 6 -112 -9 -22 -51 -20 -64 3 -23 44 -5 121 28 121 10 0 23 -5
30 -12z m190 0 c7 -7 12 -27 12 -45 0 -26 -6 -36 -25 -45 -14 -6 -25 -18 -25
-25 0 -8 -6 -13 -12 -11 -13 5 -24 99 -14 124 7 17 48 18 64 2z m235 3 c11 -2
9 -131 -3 -131 -5 0 -10 22 -10 49 0 28 -4 53 -10 56 -6 4 -10 -15 -10 -49 0
-43 -3 -56 -15 -56 -12 0 -15 13 -15 55 0 30 -4 55 -10 55 -5 0 -10 -25 -10
-55 0 -42 -3 -55 -15 -55 -12 0 -15 13 -15 58 0 32 5 63 11 69 9 9 61 11 102
4z m197 -6 c0 -8 -9 -15 -20 -15 -11 0 -20 -7 -20 -15 0 -8 7 -15 15 -15 8 0
15 -4 15 -10 0 -5 -7 -10 -15 -10 -8 0 -15 -9 -15 -20 0 -13 7 -20 20 -20 11
0 20 -4 20 -10 0 -5 -16 -10 -35 -10 l-35 0 0 70 0 70 35 0 c24 0 35 -5 35
-15z m180 -4 c5 -11 10 -42 10 -70 0 -39 -4 -51 -15 -51 -12 0 -15 13 -15 55
0 30 -4 55 -10 55 -5 0 -10 -25 -10 -55 0 -42 -3 -55 -15 -55 -12 0 -15 13
-15 58 0 32 5 63 12 70 18 18 46 14 58 -7z m180 4 c0 -8 -4 -15 -10 -15 -5 0
-10 -25 -10 -55 0 -30 -4 -55 -10 -55 -5 0 -10 24 -10 54 0 40 -4 55 -16 60
-24 9 -6 26 27 26 19 0 29 -5 29 -15z m-433 -242 l35 -27 -34 -28 c-33 -28
-58 -36 -58 -19 0 6 5 13 10 16 6 3 10 17 10 30 0 13 -4 27 -10 30 -13 8 -13
25 1 25 6 0 26 -12 46 -27z m-2057 -28 c0 -8 -4 -15 -10 -15 -5 0 -10 7 -10
15 0 8 5 15 10 15 6 0 10 -7 10 -15z m60 0 c0 -8 -4 -15 -10 -15 -5 0 -10 7
-10 15 0 8 5 15 10 15 6 0 10 -7 10 -15z m60 0 c0 -8 -4 -15 -10 -15 -5 0 -10
7 -10 15 0 8 5 15 10 15 6 0 10 -7 10 -15z m60 0 c0 -8 -4 -15 -10 -15 -5 0
-10 7 -10 15 0 8 5 15 10 15 6 0 10 -7 10 -15z m60 0 c0 -8 -4 -15 -10 -15 -5
0 -10 7 -10 15 0 8 5 15 10 15 6 0 10 -7 10 -15z m60 0 c0 -8 -4 -15 -10 -15
-5 0 -10 7 -10 15 0 8 5 15 10 15 6 0 10 -7 10 -15z m60 0 c0 -8 -4 -15 -10
-15 -5 0 -10 7 -10 15 0 8 5 15 10 15 6 0 10 -7 10 -15z m60 0 c0 -8 -4 -15
-10 -15 -5 0 -10 7 -10 15 0 8 5 15 10 15 6 0 10 -7 10 -15z m60 0 c0 -8 -4
-15 -10 -15 -5 0 -10 7 -10 15 0 8 5 15 10 15 6 0 10 -7 10 -15z m60 5 c0 -14
37 -13 42 2 5 14 58 -30 58 -48 0 -25 -22 -25 -55 0 -18 14 -41 26 -49 26 -9
0 -16 7 -16 15 0 8 5 15 10 15 6 0 10 -4 10 -10z m120 -5 c0 -8 -7 -15 -15
-15 -9 0 -12 6 -9 15 4 8 10 15 15 15 5 0 9 -7 9 -15z m60 0 c0 -8 -4 -15 -10
-15 -5 0 -10 7 -10 15 0 8 5 15 10 15 6 0 10 -7 10 -15z m63 3 c3 -10 9 -10
26 0 11 6 23 12 26 12 10 0 5 -28 -7 -32 -6 -2 -35 -62 -63 -134 -34 -88 -56
-130 -68 -132 -27 -5 -21 25 27 152 24 64 40 116 35 116 -4 0 -6 7 -3 15 7 18
21 20 27 3z m117 -3 c0 -8 -4 -15 -10 -15 -5 0 -10 7 -10 15 0 8 5 15 10 15 6
0 10 -7 10 -15z m60 0 c0 -8 -4 -15 -10 -15 -5 0 -10 7 -10 15 0 8 5 15 10 15
6 0 10 -7 10 -15z m60 0 c0 -8 -4 -15 -10 -15 -5 0 -10 7 -10 15 0 8 5 15 10
15 6 0 10 -7 10 -15z m60 0 c0 -8 -4 -15 -10 -15 -5 0 -10 7 -10 15 0 8 5 15
10 15 6 0 10 -7 10 -15z m60 0 c0 -8 -4 -15 -10 -15 -5 0 -10 7 -10 15 0 8 5
15 10 15 6 0 10 -7 10 -15z m60 0 c0 -8 -4 -15 -10 -15 -5 0 -10 7 -10 15 0 8
5 15 10 15 6 0 10 -7 10 -15z m60 5 c0 -5 9 -10 20 -10 11 0 20 5 20 10 0 6 5
10 10 10 17 0 11 -21 -12 -41 -37 -31 -53 -38 -68 -29 -11 7 -11 14 0 39 12
30 30 42 30 21z m120 -5 c0 -8 -7 -15 -15 -15 -9 0 -12 6 -9 15 4 8 10 15 15
15 5 0 9 -7 9 -15z m60 0 c0 -8 -4 -15 -10 -15 -5 0 -10 7 -10 15 0 8 5 15 10
15 6 0 10 -7 10 -15z m60 0 c0 -8 -4 -15 -10 -15 -5 0 -10 7 -10 15 0 8 5 15
10 15 6 0 10 -7 10 -15z m60 0 c0 -8 -4 -15 -10 -15 -5 0 -10 7 -10 15 0 8 5
15 10 15 6 0 10 -7 10 -15z m60 0 c0 -8 -4 -15 -10 -15 -5 0 -10 7 -10 15 0 8
5 15 10 15 6 0 10 -7 10 -15z m60 0 c0 -8 -4 -15 -10 -15 -5 0 -10 7 -10 15 0
8 5 15 10 15 6 0 10 -7 10 -15z m60 0 c0 -8 -4 -15 -10 -15 -5 0 -10 7 -10 15
0 8 5 15 10 15 6 0 10 -7 10 -15z m60 0 c0 -8 -4 -15 -10 -15 -5 0 -10 7 -10
15 0 8 5 15 10 15 6 0 10 -7 10 -15z m60 0 c0 -8 -4 -15 -10 -15 -5 0 -10 7
-10 15 0 8 5 15 10 15 6 0 10 -7 10 -15z m60 0 c0 -8 -4 -15 -10 -15 -5 0 -10
7 -10 15 0 8 5 15 10 15 6 0 10 -7 10 -15z m60 0 c0 -8 -4 -15 -10 -15 -5 0
-10 7 -10 15 0 8 5 15 10 15 6 0 10 -7 10 -15z m-1255 -336 c51 -14 106 -54
134 -96 29 -45 53 -142 49 -200 l-3 -48 -92 -3 -93 -3 0 55 c0 69 -14 101 -51
117 -37 15 -82 -2 -98 -37 -7 -17 -11 -119 -11 -307 0 -263 1 -284 20 -314 17
-28 25 -33 59 -33 66 0 81 25 81 132 l0 88 -30 0 c-36 0 -50 23 -50 82 0 92
-4 89 139 86 l126 -3 3 -183 c2 -167 1 -186 -19 -232 -26 -62 -93 -125 -151
-142 -23 -7 -73 -12 -111 -11 -124 2 -221 71 -253 180 -12 43 -14 109 -12 375
3 311 4 324 25 364 60 112 206 169 338 133z m745 -19 c58 -29 96 -65 123 -115
21 -38 22 -54 25 -363 3 -359 -1 -395 -58 -464 -93 -113 -298 -125 -417 -24
-17 14 -43 50 -57 78 l-26 52 0 330 c0 326 1 332 24 382 28 60 94 119 156 139
64 21 173 14 230 -15z m-2193 -716 c-3 -3 -12 -4 -19 -1 -8 3 -5 6 6 6 11 1
17 -2 13 -5z m457 -270 c3 -8 2 -12 -4 -9 -6 3 -10 10 -10 16 0 14 7 11 14 -7z
m2290 -225 c-3 -5 -10 -7 -15 -3 -5 3 -7 10 -3 15 3 5 10 7 15 3 5 -3 7 -10 3
-15z m-19 -10 c19 -18 -10 -44 -51 -46 -21 -1 -33 0 -26 3 6 3 10 10 6 15 -3
5 0 9 6 9 6 0 8 5 5 10 -17 28 32 35 60 9z m-1117 -86 c-10 -2 -26 -2 -35 0
-10 3 -2 5 17 5 19 0 27 -2 18 -5z m79 1 c-3 -3 -12 -4 -19 -1 -8 3 -5 6 6 6
11 1 17 -2 13 -5z m480 -50 c-3 -3 -12 -4 -19 -1 -8 3 -5 6 6 6 11 1 17 -2 13
-5z m-122 -64 c-11 -5 -33 -8 -50 -8 -29 1 -29 1 5 8 49 10 69 10 45 0z m38
-17 c-7 -2 -19 -2 -25 0 -7 3 -2 5 12 5 14 0 19 -2 13 -5z m4 -19 c-3 -3 -12
-4 -19 -1 -8 3 -5 6 6 6 11 1 17 -2 13 -5z m33 -4 c0 -5 -4 -10 -10 -10 -5 0
-10 5 -10 10 0 6 5 10 10 10 6 0 10 -4 10 -10z m521 -53 c-1 -12 -15 -9 -19 4
-3 6 1 10 8 8 6 -3 11 -8 11 -12z m-14 -33 c-3 -3 -12 -4 -19 -1 -8 3 -5 6 6
6 11 1 17 -2 13 -5z m-400 -10 c-3 -3 -12 -4 -19 -1 -8 3 -5 6 6 6 11 1 17 -2
13 -5z m1778 -4 c3 -6 -1 -7 -9 -4 -18 7 -21 14 -7 14 6 0 13 -4 16 -10z
m-3725 -20 c0 -5 -5 -10 -11 -10 -5 0 -7 5 -4 10 3 6 8 10 11 10 2 0 4 -4 4
-10z m2258 -32 c20 -23 28 -23 35 3 4 13 10 18 18 13 7 -4 18 1 25 11 8 10 17
15 21 10 5 -4 2 -10 -4 -12 -7 -3 -13 -11 -13 -18 0 -8 -7 -11 -20 -8 -21 6
-28 -13 -7 -20 6 -2 4 -3 -5 -2 -10 2 -18 -3 -18 -11 0 -9 12 -14 35 -14 l36
0 -25 -27 c-22 -23 -28 -25 -48 -14 -13 6 -15 10 -6 7 9 -3 19 2 22 10 3 8 -1
14 -9 14 -8 0 -15 5 -15 10 0 6 -6 10 -13 10 -7 0 -18 9 -25 20 -7 12 -17 18
-22 15 -14 -9 -12 19 2 33 10 10 14 10 17 0 2 -7 10 -21 19 -30z m-351 16 c-3
-3 -12 -4 -19 -1 -8 3 -5 6 6 6 11 1 17 -2 13 -5z m-152 -24 c-3 -5 -10 -10
-16 -10 -5 0 -9 5 -9 10 0 6 7 10 16 10 8 0 12 -4 9 -10z m82 4 c-3 -3 -12 -4
-19 -1 -8 3 -5 6 6 6 11 1 17 -2 13 -5z m178 -21 c5 -16 -27 -17 -42 -2 -13
13 -88 8 -87 -6 1 -5 -6 -15 -14 -21 -13 -10 -11 -11 11 -11 15 0 30 3 33 8
11 18 21 8 17 -16 -3 -13 -14 -27 -24 -30 -11 -4 -17 -11 -14 -16 3 -5 -1 -6
-9 -3 -21 8 -20 22 2 26 14 3 13 5 -6 10 -12 3 -20 2 -16 -3 9 -16 -6 -10 -28
11 -12 11 -17 20 -10 20 6 0 23 11 38 25 24 23 35 26 86 23 34 -2 60 -8 63
-15z m420 7 c8 -13 -5 -13 -25 0 -13 8 -13 10 2 10 9 0 20 -4 23 -10z m885 0
c0 -5 -5 -10 -11 -10 -5 0 -7 5 -4 10 3 6 8 10 11 10 2 0 4 -4 4 -10z m-1475
-10 c-3 -5 -18 -10 -33 -10 -21 0 -24 2 -12 10 20 13 53 13 45 0z m393 -2 c-3
-7 -13 -15 -23 -16 -15 -4 -16 -2 -4 12 17 19 32 21 27 4z m272 -13 c-10 -12
-9 -15 5 -15 10 0 16 -3 12 -6 -3 -3 -15 -3 -26 1 -23 7 -18 35 6 35 13 0 13
-3 3 -15z m-865 -5 c3 -5 -3 -10 -14 -10 -11 0 -23 5 -26 10 -3 6 3 10 14 10
11 0 23 -4 26 -10z m-432 -7 c-7 -2 -21 -2 -30 0 -10 3 -4 5 12 5 17 0 24 -2
18 -5z m822 -3 c3 -5 2 -10 -3 -10 -14 0 -2 -43 16 -57 13 -11 13 -13 -2 -19
-14 -5 -15 -9 -5 -15 7 -4 21 -3 30 2 28 15 44 12 29 -6 -9 -10 -9 -15 -1 -15
6 0 2 -9 -9 -20 -24 -24 -34 -26 -26 -5 4 11 -3 19 -20 25 -31 12 -37 12 -30
2 2 -4 -14 -5 -37 -3 l-42 4 29 12 c19 8 24 14 15 17 -11 5 -10 9 6 22 11 8
16 16 10 16 -5 0 -3 5 5 10 12 7 8 10 -15 10 -28 1 -29 2 -7 10 12 5 22 14 22
20 0 13 27 13 35 0z m-945 -13 c0 -19 -10 -27 -26 -20 -21 8 -17 33 6 33 11 0
20 -6 20 -13z m987 7 c-3 -3 -12 -4 -19 -1 -8 3 -5 6 6 6 11 1 17 -2 13 -5z
m186 -1 c-7 -2 -21 -2 -30 0 -10 3 -4 5 12 5 17 0 24 -2 18 -5z m351 -18 c4
-13 2 -14 -14 -5 -23 13 -26 20 -6 20 8 0 16 -7 20 -15z m-785 -13 c-7 -3 -17
-10 -21 -16 -5 -7 -8 -5 -8 5 0 22 9 29 28 21 13 -5 14 -6 1 -10z m941 -7 c0
-9 10 -20 23 -25 20 -8 21 -9 2 -9 -21 -1 -58 33 -48 43 11 11 23 6 23 -9z
m-550 -5 c8 -5 11 -10 5 -10 -5 0 -17 5 -25 10 -8 5 -10 10 -5 10 6 0 17 -5
25 -10z m630 -5 c0 -8 -7 -15 -15 -15 -13 0 -14 3 -3 15 16 18 18 18 18 0z
m-493 -21 c-3 -3 -12 -4 -19 -1 -8 3 -5 6 6 6 11 1 17 -2 13 -5z m-412 -14
c-3 -5 -12 -7 -20 -3 -21 7 -19 13 6 13 11 0 18 -4 14 -10z m225 -4 c0 -3 -4
-8 -10 -11 -5 -3 -10 -1 -10 4 0 6 5 11 10 11 6 0 10 -2 10 -4z m-2670 -34 c0
-13 -12 -22 -22 -16 -10 6 -1 24 13 24 5 0 9 -4 9 -8z m770 -2 c0 -5 -5 -10
-11 -10 -5 0 -7 5 -4 10 3 6 8 10 11 10 2 0 4 -4 4 -10z m2700 -4 c0 -8 -4
-17 -9 -21 -12 -7 -24 12 -16 25 9 15 25 12 25 -4z m223 -28 c3 -10 2 -18 -3
-18 -6 0 -10 5 -10 11 0 5 -4 8 -8 5 -4 -2 -14 -1 -21 4 -12 7 -12 10 0 22 15
16 30 7 42 -24z m-2963 22 c0 -5 -4 -10 -10 -10 -5 0 -10 5 -10 10 0 6 5 10
10 10 6 0 10 -4 10 -10z m1308 -1 c-2 -6 -8 -10 -13 -10 -5 0 -11 4 -13 10 -2
6 4 11 13 11 9 0 15 -5 13 -11z m872 -4 c-14 -16 -40 -20 -40 -6 0 10 17 19
39 20 11 1 11 -2 1 -14z m-560 -5 c0 -5 -4 -10 -10 -10 -5 0 -10 5 -10 10 0 6
5 10 10 10 6 0 10 -4 10 -10z m55 0 c3 -5 1 -10 -4 -10 -6 0 -11 5 -11 10 0 6
2 10 4 10 3 0 8 -4 11 -10z m1324 -4 c7 -8 8 -17 3 -19 -4 -3 -13 3 -20 14
-14 22 0 26 17 5z m-3469 -6 c0 -5 -4 -10 -10 -10 -5 0 -10 5 -10 10 0 6 5 10
10 10 6 0 10 -4 10 -10z m2181 -3 c-1 -12 -15 -9 -19 4 -3 6 1 10 8 8 6 -3 11
-8 11 -12z m179 3 c0 -5 -4 -10 -10 -10 -5 0 -10 -7 -10 -15 0 -8 -4 -15 -10
-15 -14 0 -13 18 3 35 14 17 27 19 27 5z m795 -10 c3 -5 1 -10 -4 -10 -6 0
-11 5 -11 10 0 6 2 10 4 10 3 0 8 -4 11 -10z m-1148 -36 c-3 -3 -12 -4 -19 -1
-8 3 -5 6 6 6 11 1 17 -2 13 -5z m1449 -6 c4 -7 3 -8 -4 -4 -7 4 -12 1 -12 -8
0 -18 -16 -21 -25 -6 -3 6 -1 10 5 10 6 0 8 5 5 10 -3 6 1 10 9 10 8 0 18 -5
22 -12z m-1196 -18 c0 -5 -4 -10 -10 -10 -5 0 -10 5 -10 10 0 6 5 10 10 10 6
0 10 -4 10 -10z"/>
<path d="M1726 3887 c-14 -15 -26 -35 -26 -47 0 -11 -1 -100 -1 -197 l0 -178
75 -3 76 -3 0 199 c0 222 -4 236 -67 248 -26 5 -37 1 -57 -19z"/>
<path d="M3160 3555 l0 -335 49 0 c38 0 56 6 78 24 l28 24 3 259 c2 142 0 273
-3 291 -10 53 -36 72 -100 72 l-55 0 0 -335z"/>
<path d="M1730 2521 c0 -6 5 -13 10 -16 6 -3 10 1 10 9 0 9 -4 16 -10 16 -5 0
-10 -4 -10 -9z"/>
<path d="M1730 2466 c0 -8 5 -18 10 -21 6 -3 10 3 10 14 0 12 -4 21 -10 21 -5
0 -10 -6 -10 -14z"/>
<path d="M2070 2490 c0 -22 5 -40 10 -40 6 0 10 18 10 40 0 22 -4 40 -10 40
-5 0 -10 -18 -10 -40z"/>
<path d="M2980 2491 c0 -22 5 -43 10 -46 6 -4 10 12 10 39 0 25 -4 46 -10 46
-5 0 -10 -18 -10 -39z"/>
<path d="M3170 2505 c0 -14 5 -25 10 -25 6 0 10 11 10 25 0 14 -4 25 -10 25
-5 0 -10 -11 -10 -25z"/>
<path d="M2812 1763 c-7 -3 -19 -18 -27 -33 -12 -24 -15 -83 -15 -319 0 -290
0 -290 23 -317 33 -37 81 -37 114 0 23 27 23 28 23 310 0 172 -4 295 -10 313
-15 41 -66 63 -108 46z"/>
<path d="M3416 61 c-3 -5 6 -8 19 -8 14 0 25 3 25 8 0 5 -9 9 -19 9 -11 0 -22
-4 -25 -9z"/>
<path d="M3550 45 c-14 -16 -10 -18 14 -9 9 3 16 10 16 15 0 14 -16 11 -30 -6z"/>
</g>
</svg>
